<svg width="1600" height="900" viewBox="0 0 1600 900" fill="none" xmlns="http://www.w3.org/2000/svg">
  <rect width="1600" height="900" fill="#ffffff"/>

  <text x="92" y="126" fill="#111827" font-family="Inter, Arial, Helvetica, sans-serif" font-size="44" font-weight="700">
    Chain Head, Not Version Window
  </text>
  <text x="92" y="172" fill="#4b5563" font-family="Inter, Arial, Helvetica, sans-serif" font-size="22">
    A stable attestation resolves to the current policy root. Old roots remain historical, not valid.
  </text>

  <path d="M186 454C344 300 494 300 640 454C786 608 936 608 1082 454C1218 311 1344 308 1480 454"
        stroke="#111827" stroke-width="4" stroke-linecap="round" fill="none"/>

  <path d="M1428 430L1482 454L1428 478" stroke="#111827" stroke-width="4" stroke-linecap="round" stroke-linejoin="round"/>

  <circle cx="240" cy="406" r="48" fill="#f3f4f6" stroke="#9ca3af" stroke-width="3"/>
  <text x="204" y="414" fill="#6b7280" font-family="JetBrains Mono, Consolas, monospace" font-size="20">v39</text>
  <line x1="206" y1="372" x2="274" y2="440" stroke="#ef4444" stroke-width="4"/>

  <circle cx="474" cy="340" r="48" fill="#f3f4f6" stroke="#9ca3af" stroke-width="3"/>
  <text x="438" y="348" fill="#6b7280" font-family="JetBrains Mono, Consolas, monospace" font-size="20">v40</text>
  <line x1="440" y1="306" x2="508" y2="374" stroke="#ef4444" stroke-width="4"/>

  <circle cx="708" cy="506" r="48" fill="#f3f4f6" stroke="#9ca3af" stroke-width="3"/>
  <text x="672" y="514" fill="#6b7280" font-family="JetBrains Mono, Consolas, monospace" font-size="20">v41</text>
  <line x1="674" y1="472" x2="742" y2="540" stroke="#ef4444" stroke-width="4"/>

  <circle cx="1116" cy="420" r="70" fill="#ecfdf5" stroke="#047857" stroke-width="5"/>
  <text x="1074" y="414" fill="#065f46" font-family="JetBrains Mono, Consolas, monospace" font-size="22" font-weight="700">
    v42
  </text>
  <text x="1064" y="446" fill="#065f46" font-family="Inter, Arial, Helvetica, sans-serif" font-size="18" font-weight="700">
    current
  </text>

  <path d="M916 230C966 280 1012 335 1060 380" stroke="#f97316" stroke-width="4" stroke-linecap="round" fill="none"/>
  <path d="M1036 374L1064 384L1056 355" stroke="#f97316" stroke-width="4" stroke-linecap="round" stroke-linejoin="round"/>

  <text x="572" y="236" fill="#7c2d12" font-family="Inter, Arial, Helvetica, sans-serif" font-size="26" font-weight="700">
    EAS attestation
  </text>
  <text x="572" y="272" fill="#7c2d12" font-family="Inter, Arial, Helvetica, sans-serif" font-size="20">
    points to a mutable chain head
  </text>
  <path d="M572 298H870" stroke="#f97316" stroke-width="3"/>
  <circle cx="898" cy="298" r="22" fill="#fff7ed" stroke="#f97316" stroke-width="4"/>
  <text x="934" y="306" fill="#7c2d12" font-family="JetBrains Mono, Consolas, monospace" font-size="18">
    chain_head
  </text>

  <text x="168" y="616" fill="#6b7280" font-family="Inter, Arial, Helvetica, sans-serif" font-size="20" font-weight="700">
    historical roots
  </text>
  <text x="168" y="650" fill="#6b7280" font-family="Inter, Arial, Helvetica, sans-serif" font-size="18">
    retained for audit, rejected for new authorization checks
  </text>

  <text x="1010" y="588" fill="#065f46" font-family="Inter, Arial, Helvetica, sans-serif" font-size="24" font-weight="700">
    verifier reads this root only
  </text>
  <text x="1010" y="624" fill="#374151" font-family="Inter, Arial, Helvetica, sans-serif" font-size="19">
    no grace period for revoked permissions
  </text>

  <line x1="96" y1="734" x2="1504" y2="734" stroke="#e5e7eb" stroke-width="2"/>
  <text x="96" y="790" fill="#111827" font-family="Inter, Arial, Helvetica, sans-serif" font-size="24" font-weight="700">
    Rule:
  </text>
  <text x="172" y="790" fill="#111827" font-family="Inter, Arial, Helvetica, sans-serif" font-size="24">
    revocation should take effect immediately, so Emtun verifies against the chain head only.
  </text>

  <text x="96" y="844" fill="#4b5563" font-family="Inter, Arial, Helvetica, sans-serif" font-size="18">
    Emtun / Scoped Authorization Proofs
  </text>
</svg>
