<svg width="1600" height="900" viewBox="0 0 1600 900" fill="none" xmlns="http://www.w3.org/2000/svg">
  <rect width="1600" height="900" fill="#ffffff"/>
  <rect x="56" y="56" width="1488" height="788" rx="18" fill="#ffffff" stroke="#111827" stroke-width="3"/>

  <text x="96" y="130" fill="#111827" font-family="Inter, Arial, Helvetica, sans-serif" font-size="42" font-weight="700">
    Policy Root Chain Head
  </text>
  <text x="96" y="174" fill="#4b5563" font-family="Inter, Arial, Helvetica, sans-serif" font-size="22">
    The attestation points to the head. Verification reads the current root only.
  </text>

  <rect x="118" y="350" width="300" height="150" rx="12" fill="#f9fafb" stroke="#111827" stroke-width="2"/>
  <text x="158" y="402" fill="#111827" font-family="Inter, Arial, Helvetica, sans-serif" font-size="28" font-weight="700">
    EAS attestation
  </text>
  <text x="158" y="444" fill="#4b5563" font-family="Inter, Arial, Helvetica, sans-serif" font-size="20">
    stable identity record
  </text>
  <text x="158" y="476" fill="#4b5563" font-family="JetBrains Mono, Consolas, monospace" font-size="18">
    points_to: chain_head
  </text>

  <path d="M418 425H560" stroke="#111827" stroke-width="3"/>
  <path d="M542 411L568 425L542 439" stroke="#111827" stroke-width="3" stroke-linecap="round" stroke-linejoin="round"/>

  <rect x="568" y="318" width="330" height="214" rx="14" fill="#fff7ed" stroke="#c2410c" stroke-width="3"/>
  <text x="616" y="378" fill="#7c2d12" font-family="Inter, Arial, Helvetica, sans-serif" font-size="30" font-weight="700">
    Chain head
  </text>
  <text x="616" y="422" fill="#7c2d12" font-family="Inter, Arial, Helvetica, sans-serif" font-size="21">
    mutable authorization pointer
  </text>
  <rect x="616" y="456" width="232" height="44" rx="8" fill="#ffffff" stroke="#fed7aa"/>
  <text x="640" y="484" fill="#111827" font-family="JetBrains Mono, Consolas, monospace" font-size="18">
    current_version: 42
  </text>

  <path d="M898 425H1040" stroke="#111827" stroke-width="3"/>
  <path d="M1022 411L1048 425L1022 439" stroke="#111827" stroke-width="3" stroke-linecap="round" stroke-linejoin="round"/>

  <rect x="1048" y="334" width="340" height="182" rx="14" fill="#ecfdf5" stroke="#047857" stroke-width="3"/>
  <text x="1096" y="392" fill="#065f46" font-family="Inter, Arial, Helvetica, sans-serif" font-size="30" font-weight="700">
    Current root
  </text>
  <text x="1096" y="436" fill="#065f46" font-family="Inter, Arial, Helvetica, sans-serif" font-size="21">
    valid for new verification
  </text>
  <rect x="1096" y="468" width="240" height="34" rx="6" fill="#ffffff" stroke="#a7f3d0"/>
  <text x="1116" y="491" fill="#111827" font-family="JetBrains Mono, Consolas, monospace" font-size="16">
    policy_root_v42
  </text>

  <text x="568" y="624" fill="#374151" font-family="Inter, Arial, Helvetica, sans-serif" font-size="18" font-weight="700">
    Historical roots
  </text>
  <text x="568" y="654" fill="#6b7280" font-family="Inter, Arial, Helvetica, sans-serif" font-size="18">
    retained for audit, not accepted for new authorization checks
  </text>

  <rect x="568" y="690" width="186" height="64" rx="10" fill="#f3f4f6" stroke="#9ca3af" stroke-width="2"/>
  <text x="602" y="729" fill="#6b7280" font-family="JetBrains Mono, Consolas, monospace" font-size="17">
    root_v39
  </text>
  <line x1="584" y1="705" x2="738" y2="740" stroke="#ef4444" stroke-width="3"/>

  <path d="M754 722H808" stroke="#9ca3af" stroke-width="2" stroke-dasharray="6 8"/>

  <rect x="808" y="690" width="186" height="64" rx="10" fill="#f3f4f6" stroke="#9ca3af" stroke-width="2"/>
  <text x="842" y="729" fill="#6b7280" font-family="JetBrains Mono, Consolas, monospace" font-size="17">
    root_v40
  </text>
  <line x1="824" y1="705" x2="978" y2="740" stroke="#ef4444" stroke-width="3"/>

  <path d="M994 722H1048" stroke="#9ca3af" stroke-width="2" stroke-dasharray="6 8"/>

  <rect x="1048" y="690" width="186" height="64" rx="10" fill="#f3f4f6" stroke="#9ca3af" stroke-width="2"/>
  <text x="1082" y="729" fill="#6b7280" font-family="JetBrains Mono, Consolas, monospace" font-size="17">
    root_v41
  </text>
  <line x1="1064" y1="705" x2="1218" y2="740" stroke="#ef4444" stroke-width="3"/>

  <rect x="1266" y="676" width="210" height="92" rx="12" fill="#fff1f2" stroke="#be123c" stroke-width="2"/>
  <text x="1300" y="716" fill="#9f1239" font-family="Inter, Arial, Helvetica, sans-serif" font-size="20" font-weight="700">
    Not valid
  </text>
  <text x="1300" y="748" fill="#9f1239" font-family="Inter, Arial, Helvetica, sans-serif" font-size="17">
    for new proofs
  </text>

  <rect x="118" y="610" width="300" height="118" rx="12" fill="#eff6ff" stroke="#1d4ed8" stroke-width="2"/>
  <text x="154" y="654" fill="#1e40af" font-family="Inter, Arial, Helvetica, sans-serif" font-size="22" font-weight="700">
    Rule
  </text>
  <text x="154" y="690" fill="#111827" font-family="Inter, Arial, Helvetica, sans-serif" font-size="20">
    No version window.
  </text>
  <text x="154" y="720" fill="#111827" font-family="Inter, Arial, Helvetica, sans-serif" font-size="20">
    Chain head only.
  </text>

  <text x="96" y="812" fill="#111827" font-family="Inter, Arial, Helvetica, sans-serif" font-size="22" font-weight="700">
    Emtun / Scoped Authorization Proofs
  </text>
  <text x="96" y="842" fill="#4b5563" font-family="Inter, Arial, Helvetica, sans-serif" font-size="18">
    Revoked authorization should stop working immediately. Historical roots remain inspectable, not acceptable.
  </text>
</svg>
